<svg version="1.2" xmlns="http://www.w3.org/2000/svg" viewBox="0 0 255 373" width="255" height="373">
	<title>cat-logo</title>
	<style>
		.s0 { fill: #1d1d12 } 
	</style>
	<g id="OBJECTS">
		<g id="&lt;Group&gt;">
			<path id="&lt;Path&gt;" class="s0" d="m132.8 348.8c-0.2-7.1 0.7-17.1-5.2-32.2-15.9-41-32-113.4-23.7-157-16.1 28.7-6.9 40.7-15.4 63-13.8 36.5-20.4 63.8-6.8 97.1 2.7 3.7 7.1 10.7 7.7 15.7-3.6-3-5.9-6.2-7.3-9.3-16.8-4.4-69.9-5.2-74.5 7.9-2.9 13.2 65.4 8.2 83.7 14.2 0 0 6 2.5 13.2 5.6 7.3 3.2 9.2 6 23.6 5.7-0.7-4.1 1.6-7.9 4.7-10.7z"/>
			<path id="&lt;Path&gt;" class="s0" d="m244.7 250.4c-10.9-24-8.8-45.5-12.2-58.1-3.3-12.7-19.8-29.9-21-40.9-1.3-10.9 0.8-32.8-2.1-41.2-3-8.5-8.4-23.6-8-31.6 0.4-8 0.1-17.2-3.8-24.9 3.8-1.2 10.7-35.7 0.4-45.4-5.5-3.8-29.5 22.9-34.7 26.3 0 0-12.4-2.3-21.5 0.4-7.2 2.1-20.4-27.4-37.3-25.7-4.4-0.8-4 34.1 3.4 45.5-2.3 2.1-4.7 14.9-3.8 28.8 0.6 8.8 4.8 16.5 3.8 20-5.2 14.8-1.8 38.9-2.4 50.8-0.1 1.5-0.5 3-1.2 4.3-5.9 43.5 12.1 115.6 25.6 157 5 15.4 4.5 25.8 4.2 33.2-4.3 3.9-7.7 9.7-2.8 15.8q0.3 0.3 0.7 0.4c2.4 0.4 28.3 1.2 30.5 0 0 0 0.4-0.4 0.8-1.2 0.8-2.3 1.2-5.8 1.2-8.1q0-0.5-0.1-0.9c-1.4-6.7-16.8-69.7-10-92.6-1.8 16.3 5.3 55.6 9.1 77.8 0.4-4.5 1.1-10.5 2.1-16.4 2.1-12.8 4.2-57.2 4.9-57 1.3 0.2 1.1 45.1-2.5 57.8-1.7 8-3 16.5-3.6 21.1 0.8 4.6 1.3 8 1.4 9.5 0 0.9-0.1 2-0.2 3.1 0.6 2.2 2.2 5.8 5.6 6.7 4.7 1.3 29 1.6 30.3-0.3q0.2-0.3 0.4-0.6c1-1.7 1.9-4 0.7-7.7-1.6-5.1-8.8-7.2-9.7-10.4-1-3.1-3.7-11 0.3-24.7 4-13.6 20.9-64.2 22.2-71.9 0.4 7.6-13 56.2-19.5 72.8-5.1 13.3-1.9 19.9-1 23 1 3.2 7 5.6 8.6 10.7 0.3 1 0.5 1.9 0.5 2.7 1 0.2 4.6 0.9 7.7-1 3.7-2.2 9.7-8.9 13.5-17.1 3.8-8.2 8-11.7 13.2-23 5.2-11.4 17.3-43 6.3-67z"/>
			<path id="&lt;Path&gt;" class="s0" d="m203.4 361.6c-0.4 1-1 1.7-1.5 2.4q-0.2 0.3-0.3 0.5c0.3-0.2 1.3-1.2 1.8-2.9z"/>
		</g>
	</g>
</svg>