<svg version="1.2" xmlns="http://www.w3.org/2000/svg" viewBox="0 0 384 384" width="384" height="384">
	<title>7646534-ai</title>
	<style>
		.s0 { fill: #1d1d1b } 
	</style>
	<g id="OBJECTS">
		<g id="&lt;Group&gt;">
			<path id="&lt;Path&gt;" class="s0" d="m126.5 319.9c1.1-2.8 2.5-5.6 4-8.1 1.8-3.2 3.4-7.8 4.8-12.9-33.2 5.4-98-10.5-99.3 1.2-1.4 12.5 70.6 19.7 90.5 19.8z"/>
			<path id="&lt;Path&gt;" class="s0" d="m291.9 340.3c-11-14.9 42.3-136.8 36.1-190.3-1.2-14.4-5.3-30.2-26.9-50.5-21.7-20.4-0.3-35.9-41-55 0 0-23.4-25.8-33.1-22.3-9.6 3.6 1 28.6 1 28.6 0 0-15.2 11.4-20.5 25 0 0-26.6 0.4-28.2 7.5-1.6 7.1 9.5 17.4 30.4 25.1q0 0 0.1 0.4c0-0.4 0-0.7 0-0.7 0 0 6.4 10.6 13.5 18.4-2-0.6-3.6-1.4-5.1-2.4 0.1 4.4-0.1 12.7-2 18.4-2.8 8-35.7 11.8-44.8 31.3-9 19.5-17.7 27.4-21.8 55.6-4.2 28.2-8.9 35.7-8.5 46.5 0.1 3.6-0.4 8-1.2 12.4-0.4 8.4-2.1 17.4-6.4 24.2-3.2 5.2-6.6 10.9-7.6 16.3-0.1 2.8 0.5 5.4 2.2 7.6 4.7 6.5 18.7 11.2 26 11.6 7.3 0.4 28.2 12.9 36.3 9.1 1.7-0.8 3.5-1.8 5.2-3 4.8-4.1 8.4-9.6 5.3-15.3-4.3-7.9-17-8.7-25.9-9.5 7.3-2.7 24.2-0.3 28.6 7.6 0.8 1.6 1.2 3.2 1.3 4.8 5.4 0.3 19.8 0.6 30.3-2.9-3.3-12.3-7-27.5-10.8-41.1-7.4-27.3-27.2-72.1-27.2-72.1 0 0 21.5 42 30.1 70.9 5.4 18.3 9 40.1 12 53.6 1.3 4.3 2.5 7.2 3.7 8.1 4.1 3.5 9.7 4.8 14.8 2.9 5.1-1.9 10.1-1.6 13.6-3.5 2.2-0.2 4.1-0.6 5.1-2 0.1-1.3 0.1-2.4 0.1-3.2 0.3-8.7-5.9-6.3-9.8-9.4-4.4-2.8-11.1-90-9.6-91.5 0.7 0.1 5.2 40.9 8.4 67.5 1.9-19 7.7-55.2 7-67.5 3.9 14-1.1 59.8-6 75 1 8.1 1.8 13.8 2.3 14.8 1 2.4 9.6-0.3 9.5 10.9-0.1 0.7-0.2 1.8-0.3 3.1 1.3 0.4 3.6 0.7 5.9-0.4 0 0 5.4 0.6 8.4-2.3 0 0 5.5 0.4 6.1-3.7 0.7-4.1-1.5-6.4-6.6-8.6z"/>
		</g>
	</g>
</svg>