<svg version="1.2" xmlns="http://www.w3.org/2000/svg" viewBox="0 0 247 502" width="247" height="502">
	<title>7646534-ai</title>
	<style>
		.s0 { fill: #1d1d1b } 
	</style>
	<g id="OBJECTS">
		<g id="&lt;Group&gt;">
			<path id="&lt;Path&gt;" class="s0" d="m65.1 438.7c0.2-5.5 0.5-11 1.2-16-20.1-7.4-62.4-1-54.5 17.3 5.4 12.6 34.9-3.3 52.9 8.4 0.1-3.2 0.2-6.5 0.4-9.7z"/>
			<path id="&lt;Path&gt;" class="s0" d="m145.6 83.4c-1.7-2.1-3.7-4.5-4.5-4.5-0.8 0-2 3.3-2.9 6 2.4-0.7 4.9-1.2 7.4-1.5z"/>
			<path id="&lt;Path&gt;" class="s0" d="m212.2 264.1c-6.6-22.9-18.9-81.4-17-114.2 0.3-5.2 5-24.9 7.5-31.8 2.2-6.5 17-19.5 11-35.8-0.3-0.8-1-1.5-1.9-1.6-10.6-2.2-25.1 15-32.4 11.2-11.8-5.9-20.9-7.4-28.8-7.1-5.2 1.4-11.3 3.1-16.4 3.1-5 1.5-10 3-15.5 3.7-1.5 0.2-3 0.9-4 2.1-14.2 16.6 4.4 39-6.4 43.3 0 0-23.6 0.9-25.4-5.1-1.8-6-10.2-31.7-9-50.3 1.2-18.5 3.4-23.3 4.6-29.2 1.2-5.8-1.6-10.2-3.3-10.3-1.6-0.2 7.8-17.5 3.5-20.7-4.4-3.1-8.2 0.8-8.2 0.8 0 0 1.1-15-6.8-13.5-7.9 1.5-7.8 10.3-7.8 10.3 0 0-4.9-7.3-9.4-5.1-4.5 2.3-3 13.8-3 13.8 0 0-6.3-2.4-8.5 0.9-2.3 3.3 3 3.5 8.1 15 5 11.5-9.7 95.1 0.4 116.5 2.9 7.2 17.9 37.3 31.4 69.8 8.3-1.4 16.7-2.5 20.2-2.6 7.8-0.2 32.1 7.8 50.1 7.5l-0.1 0.2c-18 0.3-41.3-5.6-49.1-5.4-7.8 0.1-38.1 5-40.4 7.6-2.2 2.5-5.2 8.3-5.5 11.9-0.3 3.5 0.6 4.3 0.6 4.3 0.9 3.9 5.1 3 5.1 3 3.6 4.7 9.1 3.7 11.7 2.9 6.4 10.1 11.7-6.3 41.2 1.6 26.4 7 35.2 32.9 62.4 26.6 12.3-2.7 22-12.9 22-12.9 0 0-2.9 10.2-22.5 15.7-27.3 6.3-36.7-19.2-63.1-26.3-8.6-2.3-15.2-2.5-20.3-1.9 8.4 24.2 13.5 45.6 12.8 50.9-1.7 14.6-16.9 39-19.1 49.3-1.5 7-7.5 33.6-10.7 60.8-2.7 23-1.8 45.8-1.3 50.2 1.6 13.8 8.4 19 17.2 18.8 8-0.2 13.9-2.3 14.4-22.2 0 0 13.8 3.2 30.8-0.4 1.3-0.3 2.7 0.1 3.7 1 2.5 2.7 9 7.8 21.7 10.4 0 0 7.6 8 23.6 6 16-2 12.4-7.2 11.6-10.8-2.4-9.2 30.3-26.3 36.3-59.5 6.8-39.5-8.4-126.5-16-152.5z"/>
		</g>
	</g>
</svg>