<svg version="1.2" xmlns="http://www.w3.org/2000/svg" viewBox="0 0 384 384" width="384" height="384">
	<title>7646534-ai</title>
	<style>
		.s0 { fill: #1d1d1b } 
	</style>
	<g id="OBJECTS">
		<g id="&lt;Group&gt;">
			<path id="&lt;Path&gt;" class="s0" d="m255.5 57c1.9 0.8 4.6 3 7.4 5.9 2.7-9.7 2.5-23.4 2.4-27.7-0.1-0.4-0.6-0.6-0.9-0.3-4.8 5.4-18.9 10.4-26.6 18 7.4 0.8 14 2.3 17.7 4.1z"/>
			<path id="&lt;Path&gt;" class="s0" d="m286.2 240.3c-19.1 5.8 26.6 79.3-19.4 59.8-4.8 7.8-10.2 17.8-13.1 28 10.4 4.7 32.9 13.7 44.7 9.8 42.2-15.9 8.6-105.3-12.2-97.6z"/>
			<path id="&lt;Path&gt;" class="s0" d="m264.3 300.4q1.8-2.4 3.2-5.1c5-10 9.7-21.6 10.3-33.2 1.8-30.9-16-55.6-21.4-75.3-3.5-12.6-2.6-30.8-2.6-30.8 0 0 15.4-3.5 19.8-5 4.4-1.5 15-22.5 16-26.3 1.1-3.8-6.9-10.1-9.9-17.1-2.9-6.9 1.7-12 0.9-19.3-0.6-5.4-10.4-16.5-18.3-23.7q0.1-0.1 0.1-0.2c-3.8-2.5-7.2-4.3-9.2-5.2-4.2-1.9-9.6-1.9-17.8-5.2-5-0.7-10.6-1.6-16.6-3 2 3.9 3.7 6.7 5.4 7.4-9.2-1.2-18.7-37.8-31.1-38.5-0.7-0.1-1.4 0.1-2 0.5-4 2-17 11.1-14.3 51.6q-0.9-4.1-1.3-7.8c-5.8 7.9-19.4 25.8-32 35.6-16.4 12.9-28.4 24.5-38.7 49.3-10.3 24.8-15.4 15.2-20.2 34.5-4.9 19.4-21.5 43.9-18.3 73.6 3.1 29.7 25.9 60 26.2 66.9 0.3 6.9-8.5 17.6 12 16.2 1.4-2.6 2.4-4.7 2.5-6 0.3-5 1.4-11 0.4-13.8-1.5-4.7-15.9-26.2-17.1-40.1-1.9-13.9-5.2-58.3-5.2-58.3 0 0 3.6 18.8 8 57.7 1.3 13.1 15.6 35.5 17.2 40.2 0.9 2.8-0.5 9.8-0.8 14.7-0.1 2.3-3.8 7.2-6.8 12.3-1.6 5.1-2.5 11.6 1.9 13.9 0 0 3.5 4.3 12.2 2.1 0 0 1.6 1.6 8.6-0.2 0 0 4.6 1.8 10.8-1.2 5.1-0.2 8-5.4 9.4-10.2 0.1-3-0.2-5.8-0.4-7.2 0 0-3.9-15.3-2.2-26.4 1.7-11 4.9-43.5 4.9-43.5 0 0 1.3 28.5-1.6 43.7-2 11 1.3 25.9 1.3 25.9q0 0.2 0 0.3c4.5 0.6 20.6 2.3 31 0.6 0.4-2.4 0.8-4.6 1-6.1 0.8-6.3 6.7-64.4 7.6-64.4 1 1.7-3 57.3-4.7 64.4-0.4 1.6-1.1 4-1.7 6.6-0.4 3.4-1 15.2 8.9 17.1 0 0 4.5 3.3 10.5 2 0 0 5.3 1.1 9.7-0.3 0 0 5.3 1.9 10.1-2.1 0 0 5.1-0.3 4.6-7.5-0.2-4.2-1.5-7.9-2.5-10.4-1.2-1.6-2.2-2.6-2.2-2.6 0 0-6.8-11.2 2.7-27.3 12.3-20.8 26.5-68.7 28.4-92.1 0.8 23.6-11.8 72.5-26.2 93.5-10.6 15.4-3.3 25.3-3.3 25.3 0 0 0.2 0.3 0.5 0.7 17.2 5.1 29.9-12.1 30.1-14.3 0.6-7.3 6.6-19.4 12.2-26.9z"/>
		</g>
	</g>
</svg>